<svg id="svg" xmlns="http://www.w3.org/2000/svg" xmlns:xlink="http://www.w3.org/1999/xlink" width="400" height="340.78807241746534" viewBox="0, 0, 400,340.78807241746534">
<g id="svgg">
<path id="path0" class="brasao-svg-loading" d="M192.971 22.030 C 163.816 22.434,120.391 27.448,97.231 33.086 L 96.273 33.319 96.273 112.950 C 96.273 201.309,96.081 195.249,99.117 202.982 C 106.774 222.484,129.788 247.518,158.040 267.076 L 162.513 270.172 159.365 269.963 C 157.059 269.810,156.113 269.569,155.829 269.062 C 155.328 268.166,153.806 268.173,153.147 269.075 C 152.427 270.058,151.840 269.544,151.056 267.244 C 148.660 260.209,141.705 254.780,134.644 254.430 C 130.497 254.224,130.111 254.494,130.240 257.501 L 130.342 259.868 129.090 259.220 C 125.456 257.341,121.697 259.548,121.044 263.946 L 120.767 265.811 119.331 264.936 C 117.900 264.064,117.896 264.053,118.266 261.849 C 120.098 250.928,115.247 237.610,108.317 234.538 C 107.433 234.146,106.422 233.646,106.070 233.426 C 100.911 230.205,99.026 229.606,94.050 229.606 C 92.227 229.606,90.737 229.558,90.739 229.499 C 90.742 229.441,91.011 228.514,91.337 227.439 C 94.387 217.390,90.092 203.682,81.237 195.208 C 78.106 192.211,76.475 191.717,75.998 193.620 L 75.728 194.694 74.653 193.619 C 72.150 191.116,68.937 191.331,67.054 194.129 L 66.131 195.499 65.295 193.299 L 64.459 191.098 65.626 190.117 C 72.240 184.551,73.880 170.151,69.014 160.351 C 68.074 158.459,67.306 156.679,67.306 156.397 C 67.306 155.789,65.618 155.083,64.856 155.373 C 64.563 155.485,64.324 156.023,64.324 156.571 C 64.324 157.118,63.936 158.223,63.462 159.026 C 62.026 161.460,60.102 167.219,59.422 171.119 C 59.069 173.145,58.717 174.864,58.641 174.940 C 58.431 175.151,54.804 163.480,54.850 162.737 C 54.871 162.380,54.616 160.805,54.282 159.238 C 53.856 157.237,53.800 156.060,54.094 155.286 C 54.969 152.985,56.867 153.566,57.320 156.273 C 57.911 159.807,58.361 160.654,59.572 160.514 C 62.271 160.202,60.997 153.610,57.715 150.905 L 56.193 149.651 57.659 147.425 C 61.113 142.180,63.034 132.608,61.613 127.719 C 60.391 123.515,56.975 121.518,54.430 123.520 L 53.367 124.356 52.393 123.319 C 50.902 121.733,48.948 121.233,47.157 121.982 L 45.678 122.599 45.421 121.044 C 44.983 118.395,45.076 117.998,46.130 117.998 C 56.393 117.998,63.893 109.543,63.891 97.977 C 63.889 88.622,60.796 87.260,52.929 93.150 C 51.567 94.169,51.544 94.171,51.544 93.291 C 51.544 90.871,48.920 88.179,46.561 88.179 C 43.578 88.179,44.720 85.713,48.227 84.580 C 58.582 81.235,67.168 67.519,62.222 62.224 C 59.538 59.351,55.233 61.423,50.454 67.889 C 48.754 70.188,48.709 69.284,50.293 64.667 C 52.922 57.003,55.192 55.153,57.981 58.402 C 59.339 59.985,59.709 60.204,60.359 59.808 C 62.908 58.255,59.742 52.829,56.284 52.824 C 54.647 52.821,55.875 51.788,58.769 50.733 C 68.678 47.119,79.007 29.825,71.234 29.860 C 70.597 29.863,68.992 29.737,67.670 29.580 C 60.392 28.717,52.750 36.826,52.526 45.649 C 52.454 48.500,52.233 49.336,50.779 52.252 C 49.863 54.089,48.772 56.502,48.354 57.614 C 47.626 59.554,46.858 60.290,46.858 59.048 C 46.858 52.953,33.346 40.698,30.841 44.522 C 27.325 49.887,34.318 64.311,42.279 68.118 C 43.392 68.650,44.302 69.175,44.302 69.285 C 44.302 69.528,43.439 73.271,43.209 74.025 C 43.094 74.403,42.773 74.296,42.145 73.668 C 39.044 70.567,33.653 71.527,33.653 75.179 C 33.653 77.903,36.473 79.139,37.072 76.677 C 37.407 75.298,38.593 75.453,40.099 77.075 C 41.167 78.225,41.220 78.503,41.223 82.911 C 41.225 86.552,41.122 87.371,40.741 86.747 C 37.735 81.836,34.934 78.867,30.712 76.114 C 24.085 71.793,23.036 72.512,24.298 80.511 C 26.006 91.333,31.471 98.871,38.106 99.556 L 40.469 99.800 40.469 101.731 L 40.469 103.663 39.445 102.702 C 37.013 100.417,33.142 101.477,32.558 104.588 C 32.323 105.843,32.173 105.992,31.505 105.635 C 28.568 104.063,27.614 105.594,28.144 111.033 C 29.287 122.781,34.737 130.672,41.766 130.759 L 43.277 130.777 43.790 133.767 C 44.072 135.412,44.302 136.919,44.302 137.116 C 44.302 137.313,43.555 137.275,42.641 137.031 C 38.264 135.863,36.409 141.191,39.640 145.652 C 42.119 149.073,44.764 147.640,42.823 143.927 C 41.681 141.743,41.461 140.575,42.192 140.575 C 43.092 140.575,44.683 142.658,45.164 144.466 C 45.437 145.489,45.902 146.613,46.198 146.965 C 46.605 147.448,48.562 154.253,48.562 155.185 C 48.562 155.272,47.068 153.889,45.243 152.113 C 36.677 143.777,34.273 143.440,34.338 150.586 C 34.460 164.194,41.168 173.919,50.479 173.989 C 53.861 174.015,53.891 174.025,54.387 175.293 C 55.166 177.283,55.064 177.636,53.709 177.636 C 49.023 177.636,48.496 184.794,52.944 188.036 C 55.391 189.819,56.584 187.349,54.771 184.254 C 53.465 182.025,53.447 181.896,54.452 181.896 C 56.119 181.896,57.432 184.075,60.425 191.804 L 62.530 197.240 60.091 194.982 C 54.402 189.714,47.104 186.237,45.584 188.069 C 44.497 189.378,46.687 197.888,49.526 203.387 C 53.914 211.886,63.365 217.106,68.684 213.967 L 70.105 213.129 71.657 216.026 L 73.210 218.923 71.967 218.675 C 66.845 217.650,66.818 228.184,71.932 232.207 C 73.256 233.248,73.448 233.141,67.945 234.435 C 49.874 238.682,39.217 236.728,22.630 226.125 C 19.730 224.272,17.269 222.845,17.160 222.954 C 16.862 223.252,23.808 234.815,26.900 239.167 C 32.443 246.971,40.013 253.613,47.908 257.598 L 51.727 259.525 50.677 260.392 C 46.780 263.609,34.336 267.740,25.346 268.799 C 23.003 269.075,21.026 269.360,20.952 269.432 C 20.701 269.676,28.704 274.443,31.381 275.644 C 42.983 280.850,61.148 282.647,71.301 279.595 C 72.351 279.279,72.024 282.253,70.248 289.166 C 68.695 295.210,68.698 295.286,70.502 297.283 C 77.527 305.059,112.161 311.312,170.394 315.318 C 182.655 316.161,219.148 316.033,232.588 315.098 C 292.158 310.958,327.092 304.017,330.565 295.633 C 331.031 294.507,330.956 293.823,329.991 290.406 C 329.026 286.991,327.571 279.849,327.782 279.559 C 327.822 279.503,329.375 279.775,331.233 280.163 C 344.995 283.033,362.181 279.798,375.399 271.849 C 379.351 269.473,379.385 269.359,376.251 269.014 C 365.727 267.856,354.048 264.154,349.547 260.550 L 348.296 259.548 352.280 257.490 C 360.008 253.499,366.591 247.786,372.228 240.180 C 375.399 235.902,383.161 223.275,382.826 222.940 C 382.714 222.828,380.255 224.257,377.360 226.115 C 360.234 237.113,347.749 239.018,328.354 233.594 L 325.930 232.916 327.160 231.880 C 331.981 227.824,331.927 217.921,327.088 218.631 C 326.423 218.729,325.879 218.714,325.879 218.598 C 325.879 218.404,328.382 213.812,328.660 213.494 C 328.727 213.418,329.409 213.680,330.176 214.077 C 338.913 218.595,353.555 203.369,353.567 189.755 C 353.570 185.491,345.449 188.458,338.472 195.269 L 336.170 197.517 337.032 195.351 C 337.507 194.159,338.636 191.293,339.542 188.981 C 341.372 184.310,342.965 181.896,344.218 181.896 C 345.325 181.896,345.265 182.438,343.934 184.449 C 341.204 188.575,344.757 190.055,347.754 186.040 C 350.366 182.542,347.886 176.147,344.433 177.473 C 343.663 177.768,343.650 177.506,344.344 175.593 L 344.853 174.188 348.252 174.091 C 357.466 173.827,363.820 164.809,364.886 150.482 C 365.428 143.196,361.952 143.777,353.312 152.420 L 350.288 155.445 351.241 151.524 C 351.765 149.368,352.488 147.029,352.847 146.326 C 353.206 145.623,353.837 144.222,354.249 143.212 C 355.019 141.324,356.346 140.201,357.015 140.870 C 357.230 141.085,356.927 142.112,356.304 143.282 C 354.571 146.537,355.946 148.839,358.334 146.680 C 362.898 142.552,360.733 135.172,355.538 137.147 L 354.322 137.609 354.617 136.004 C 354.779 135.121,355.096 133.536,355.320 132.481 L 355.728 130.564 357.800 130.523 C 364.358 130.393,369.602 122.500,370.613 111.238 C 371.148 105.271,370.555 104.362,367.093 105.843 C 366.515 106.090,366.347 105.955,366.347 105.243 C 366.347 101.730,362.976 100.284,359.804 102.437 L 358.253 103.489 358.253 101.644 L 358.253 99.800 360.542 99.564 C 364.604 99.144,368.039 96.584,370.753 91.952 C 374.049 86.328,376.228 74.185,374.064 73.498 C 371.555 72.702,362.920 79.295,359.391 84.700 C 357.636 87.389,357.441 87.100,357.568 82.002 C 357.664 78.175,358.143 76.976,359.949 76.043 C 361.574 75.202,361.582 75.204,361.740 76.571 C 361.937 78.288,364.168 78.266,364.995 76.539 C 366.897 72.571,360.905 70.063,357.231 73.289 L 355.802 74.544 355.134 71.895 C 354.767 70.438,354.504 69.224,354.550 69.197 C 354.595 69.171,355.757 68.515,357.132 67.741 C 365.237 63.177,371.848 48.733,367.853 44.318 C 365.034 41.204,355.172 49.860,352.324 57.946 L 351.572 60.080 350.369 57.197 C 349.707 55.611,348.513 52.998,347.716 51.390 C 346.564 49.066,346.319 48.149,346.522 46.917 C 346.853 44.898,345.785 40.889,344.123 37.913 C 340.104 30.715,336.519 28.944,327.807 29.855 C 319.981 30.673,330.281 47.558,340.651 50.909 C 342.960 51.655,344.040 52.822,342.422 52.822 C 339.980 52.822,337.059 56.292,337.619 58.526 C 338.122 60.529,339.642 60.397,341.010 58.232 C 343.420 54.416,348.002 59.871,349.883 68.797 L 350.152 70.075 349.197 68.805 C 342.636 60.080,336.960 58.401,335.268 64.685 C 333.550 71.064,342.930 82.620,351.598 84.802 C 353.225 85.212,353.568 85.468,353.568 86.278 C 353.568 86.816,353.668 87.518,353.790 87.837 C 353.961 88.281,353.614 88.378,352.301 88.253 C 349.976 88.031,347.604 90.237,347.604 92.620 L 347.604 94.165 345.367 92.652 C 343.484 91.378,338.655 89.457,337.335 89.457 C 334.499 89.457,334.313 103.536,337.079 108.882 C 339.055 112.701,345.134 116.603,350.692 117.619 L 353.568 118.145 353.568 119.741 C 353.568 122.371,353.310 122.702,351.832 121.965 C 350.193 121.147,348.416 121.555,346.721 123.139 L 345.389 124.383 344.309 123.533 C 341.963 121.688,338.936 123.166,337.520 126.849 C 335.552 131.964,337.801 143.181,341.861 148.504 C 342.873 149.831,342.883 149.901,342.092 150.151 C 338.314 151.351,335.949 161.038,339.558 160.527 C 340.427 160.404,340.674 159.975,341.257 157.570 C 342.710 151.574,345.947 152.559,344.635 158.598 C 344.319 160.049,344.030 161.810,343.991 162.513 C 343.952 163.216,343.077 166.459,342.047 169.719 L 340.174 175.646 339.668 172.372 C 339.021 168.188,337.636 163.635,336.062 160.517 C 335.381 159.168,334.824 157.604,334.824 157.040 C 334.824 155.426,333.779 154.808,332.483 155.657 C 331.897 156.042,331.416 156.579,331.416 156.851 C 331.416 157.123,330.764 158.606,329.967 160.146 C 325.075 169.600,326.332 183.101,332.697 189.466 L 334.396 191.164 333.666 193.133 C 332.829 195.392,332.624 195.496,331.853 194.055 C 330.469 191.471,326.968 191.189,324.388 193.454 C 322.962 194.706,322.960 194.706,322.822 193.733 C 322.177 189.186,312.953 198.463,309.390 207.242 C 306.609 214.097,305.811 223.645,307.661 227.953 L 308.323 229.495 304.391 229.700 C 300.522 229.903,296.722 231.112,294.793 232.756 C 294.435 233.061,293.215 233.561,292.081 233.867 C 284.503 235.914,279.051 248.692,280.447 261.137 L 280.806 264.340 279.274 265.070 L 277.742 265.801 277.742 264.167 C 277.742 260.014,273.332 257.307,269.659 259.207 L 268.433 259.840 268.665 257.596 C 268.984 254.506,268.482 254.148,264.182 254.397 C 256.910 254.818,250.549 259.799,247.858 267.178 C 246.904 269.795,246.332 270.182,245.466 268.797 C 244.758 267.662,243.540 267.715,243.019 268.903 C 242.668 269.703,236.238 270.878,235.278 270.318 C 235.235 270.293,237.579 268.690,240.487 266.756 C 271.010 246.457,294.222 221.591,301.346 201.560 C 303.823 194.596,303.727 198.207,303.727 111.811 L 303.727 32.467 302.769 32.227 C 278.195 26.074,229.243 21.527,192.971 22.030 M230.671 31.099 C 250.809 32.394,278.142 35.820,293.823 39.015 L 295.208 39.297 295.208 92.279 L 295.208 145.261 247.710 145.261 L 200.213 145.261 200.213 87.684 L 200.213 30.108 212.034 30.385 C 218.536 30.537,226.922 30.858,230.671 31.099 M63.174 35.588 C 62.424 36.179,60.717 37.855,59.379 39.311 C 57.689 41.152,57.313 41.440,58.146 40.256 C 59.878 37.794,61.375 36.213,62.833 35.304 C 64.626 34.187,64.784 34.319,63.174 35.588 M337.451 36.528 C 338.641 37.641,340.195 39.414,340.903 40.469 C 341.612 41.523,342.011 42.194,341.790 41.960 C 341.569 41.725,339.878 39.952,338.032 38.019 C 334.357 34.170,334.028 33.328,337.451 36.528 M246.676 53.417 C 241.606 60.785,240.300 69.464,242.997 77.852 C 244.440 82.340,245.655 87.963,246.033 91.906 C 246.405 95.787,245.586 96.181,245.149 92.332 C 243.825 80.687,236.516 73.229,228.131 74.970 C 221.561 76.334,217.984 82.335,219.906 88.768 C 222.193 96.422,234.649 97.167,235.857 89.722 C 236.521 85.628,232.162 82.760,229.024 85.228 C 227.803 86.189,227.619 85.857,228.411 84.120 C 229.392 81.967,232.999 81.099,235.528 82.406 C 239.765 84.598,244.009 94.706,240.843 95.068 C 238.606 95.323,239.057 98.829,241.327 98.829 C 243.868 98.829,240.066 106.180,237.058 107.083 C 236.279 107.317,236.216 107.174,236.352 105.467 C 236.548 103.002,235.454 101.810,232.994 101.810 C 227.129 101.810,227.571 110.830,233.486 111.829 C 238.513 112.678,243.683 108.169,244.726 102.023 C 245.157 99.485,245.383 98.829,245.822 98.829 C 246.953 98.829,245.608 106.120,243.612 110.809 C 241.729 115.234,242.235 117.709,245.815 121.593 C 248.030 123.996,248.243 123.996,250.457 121.593 C 254.078 117.665,254.558 115.197,252.581 110.691 C 250.610 106.201,249.292 98.829,250.460 98.829 C 250.684 98.829,250.987 99.547,251.134 100.426 C 252.174 106.628,255.045 110.470,259.539 111.672 C 264.253 112.932,268.432 109.341,267.335 104.971 C 266.198 100.441,259.603 100.701,259.920 105.264 C 260.052 107.170,259.995 107.318,259.212 107.083 C 255.765 106.047,252.769 99.464,255.357 98.616 C 257.257 97.993,257.312 95.283,255.429 95.068 C 254.222 94.930,254.206 94.893,254.452 92.820 C 255.449 84.398,263.008 78.867,267.199 83.492 C 268.784 85.241,268.819 86.464,267.248 85.228 C 265.262 83.666,262.024 84.331,260.884 86.537 C 258.889 90.395,262.244 94.960,267.093 94.983 C 279.056 95.039,280.551 78.523,268.889 75.133 C 260.517 72.699,252.922 79.798,251.250 91.619 C 250.644 95.900,249.822 96.166,250.214 91.954 C 250.595 87.845,251.536 83.449,253.096 78.477 C 255.991 69.255,254.424 59.181,249.077 52.645 L 248.061 51.403 246.676 53.417 M36.844 56.976 C 37.729 58.323,39.141 60.288,39.982 61.342 C 40.823 62.396,41.177 62.993,40.769 62.667 C 39.313 61.508,34.428 54.526,35.073 54.526 C 35.163 54.526,35.960 55.628,36.844 56.976 M362.471 57.066 C 361.949 57.995,360.676 59.672,359.641 60.794 L 357.760 62.833 359.227 60.916 C 360.034 59.862,361.225 58.184,361.873 57.188 C 363.359 54.908,363.726 54.833,362.471 57.066 M137.593 59.425 C 137.593 60.361,137.410 60.490,136.081 60.490 C 131.122 60.490,131.112 60.543,131.314 84.187 C 131.500 105.796,131.519 105.993,133.982 111.027 C 139.790 122.897,158.498 123.980,166.243 112.894 C 169.676 107.979,169.716 107.667,169.873 84.270 L 170.013 63.535 168.805 62.184 C 167.868 61.135,167.147 60.781,165.588 60.606 C 163.990 60.425,163.578 60.216,163.578 59.583 C 163.578 58.852,163.974 58.786,168.371 58.784 C 171.006 58.783,175.032 58.658,177.316 58.506 L 181.470 58.231 181.470 59.306 C 181.470 60.288,181.280 60.400,179.304 60.590 C 175.044 60.999,175.325 59.425,175.080 84.250 L 174.867 105.857 173.736 108.952 C 165.955 130.242,132.538 129.871,125.348 108.413 C 124.731 106.573,124.603 103.341,124.404 84.629 L 124.175 62.975 122.783 61.732 C 121.740 60.800,120.968 60.490,119.695 60.490 C 118.169 60.490,117.998 60.383,117.998 59.425 L 117.998 58.360 127.796 58.360 L 137.593 58.360 137.593 59.425 M53.428 70.927 C 51.381 73.152,49.631 74.973,49.540 74.973 C 49.045 74.973,52.197 71.043,54.237 69.116 C 57.892 65.664,57.537 66.459,53.428 70.927 M345.197 69.423 C 345.865 70.016,346.994 71.363,347.708 72.417 L 349.004 74.334 346.779 72.204 C 342.339 67.955,341.113 65.799,345.197 69.423 M36.617 93.370 C 39.156 96.160,39.181 96.210,37.819 95.820 C 37.053 95.600,36.374 95.421,36.309 95.421 C 34.855 95.421,31.161 90.162,29.766 86.109 C 28.563 82.613,28.745 82.682,31.496 86.767 C 32.887 88.832,35.192 91.804,36.617 93.370 M368.945 86.563 C 367.295 91.521,364.408 94.815,360.808 95.847 C 359.587 96.197,359.687 96.019,362.261 93.238 C 363.781 91.597,366.041 88.753,367.283 86.918 C 369.938 82.999,370.145 82.955,368.945 86.563 M47.792 93.855 C 47.892 94.886,48.152 95.240,48.886 95.344 C 49.825 95.478,49.814 95.523,48.401 97.261 C 47.605 98.240,46.358 99.990,45.628 101.148 C 44.619 102.753,44.302 103.032,44.302 102.320 C 44.302 101.805,44.501 101.384,44.743 101.384 C 45.047 101.384,45.047 101.128,44.743 100.560 C 43.873 98.934,44.652 93.857,46.027 92.201 C 46.755 91.324,47.626 92.140,47.792 93.855 M353.542 93.192 C 354.342 94.946,354.647 99.958,354.002 100.735 C 353.557 101.272,353.583 101.384,354.154 101.384 C 354.627 101.384,354.843 101.755,354.836 102.556 C 354.828 103.614,354.703 103.516,353.557 101.549 C 352.858 100.351,351.516 98.496,350.575 97.427 C 348.942 95.571,348.908 95.476,349.831 95.345 C 350.551 95.243,350.836 94.880,350.943 93.930 C 351.224 91.441,352.570 91.059,353.542 93.192 M54.282 99.361 C 48.738 107.329,45.240 111.122,47.901 106.283 C 50.137 102.215,52.086 99.600,54.401 97.563 C 57.084 95.201,57.074 95.347,54.282 99.361 M345.532 98.722 C 348.222 101.565,348.993 102.646,351.227 106.709 C 353.280 110.444,352.366 109.725,348.334 104.434 C 342.135 96.297,340.948 93.878,345.532 98.722 M59.636 100.980 C 58.898 106.303,55.935 110.249,50.709 112.870 C 46.294 115.083,46.005 114.878,49.282 111.855 C 52.754 108.653,57.057 103.471,58.725 100.484 C 59.343 99.377,59.875 98.504,59.906 98.543 C 59.938 98.583,59.817 99.680,59.636 100.980 M342.519 103.895 C 343.823 105.677,346.590 108.813,348.669 110.863 C 350.748 112.913,352.323 114.590,352.169 114.590 C 348.258 114.590,341.176 108.275,339.768 103.532 C 338.923 100.686,338.851 98.592,339.642 99.848 C 339.921 100.291,341.216 102.112,342.519 103.895 M38.107 106.226 C 39.842 107.961,40.961 110.606,40.654 112.244 L 40.381 113.702 38.338 111.483 C 36.728 109.734,36.380 109.108,36.693 108.520 C 36.946 108.046,36.930 107.473,36.650 106.950 C 35.635 105.054,36.503 104.622,38.107 106.226 M362.308 107.322 C 362.247 109.060,361.980 109.709,360.776 111.053 C 359.974 111.948,359.031 113.124,358.679 113.665 C 358.067 114.608,358.043 114.561,358.105 112.550 C 358.175 110.236,359.050 108.179,360.725 106.390 C 362.220 104.791,362.393 104.893,362.308 107.322 M37.914 116.725 C 38.593 117.782,39.451 119.412,39.819 120.346 L 40.488 122.045 38.747 120.128 C 36.555 117.713,34.890 115.341,33.665 112.886 L 32.709 110.969 34.693 112.886 C 35.785 113.940,37.234 115.668,37.914 116.725 M364.816 113.736 C 363.547 116.067,359.153 121.595,358.827 121.270 C 358.083 120.526,364.299 111.608,365.561 111.608 C 365.788 111.608,365.453 112.565,364.816 113.736 M39.617 125.993 C 39.617 126.473,36.966 124.592,36.312 123.649 C 34.660 121.263,34.809 121.244,37.186 123.533 C 38.523 124.820,39.617 125.927,39.617 125.993 M362.951 123.093 C 362.060 124.345,359.920 126.092,359.278 126.092 C 358.984 126.092,363.368 121.900,363.714 121.851 C 363.788 121.840,363.445 122.399,362.951 123.093 M50.029 126.208 C 50.993 127.678,50.902 129.293,49.584 134.171 L 48.380 138.630 47.659 135.026 C 47.220 132.827,47.083 131.154,47.308 130.734 C 47.510 130.355,47.567 129.374,47.434 128.553 C 46.985 125.787,48.724 124.216,50.029 126.208 M350.909 125.772 C 351.681 126.734,351.781 131.717,351.102 135.463 L 350.446 139.084 349.702 135.676 C 349.293 133.802,348.749 131.728,348.493 131.068 C 347.685 128.979,348.618 125.240,349.947 125.240 C 350.241 125.240,350.674 125.479,350.909 125.772 M53.197 136.264 C 51.392 141.659,50.699 142.904,51.756 138.851 C 52.414 136.326,54.578 130.687,54.802 130.911 C 54.878 130.988,54.156 133.396,53.197 136.264 M346.927 138.292 C 347.944 142.187,347.394 141.441,345.881 136.875 C 344.060 131.375,343.985 131.001,345.234 133.625 C 345.812 134.839,346.574 136.940,346.927 138.292 M199.787 208.798 L 199.787 271.910 190.309 271.614 L 180.831 271.317 176.997 269.149 C 146.426 251.862,114.371 220.149,106.886 199.787 C 104.511 193.326,104.397 191.872,104.381 167.732 L 104.366 145.687 152.077 145.687 L 199.787 145.687 199.787 208.798 M353.932 158.360 C 351.506 161.593,350.675 162.522,351.362 161.235 C 351.917 160.197,355.635 155.485,355.900 155.485 C 356.004 155.485,355.118 156.778,353.932 158.360 M46.544 159.957 C 48.682 163.149,48.068 162.589,45.144 158.679 C 43.917 157.039,43.345 156.081,43.873 156.550 C 44.400 157.018,45.602 158.552,46.544 159.957 M43.869 163.626 C 45.388 165.591,47.279 167.918,48.072 168.797 C 49.711 170.613,49.606 170.727,47.355 169.578 C 44.356 168.048,40.973 163.421,39.854 159.318 L 39.563 158.253 40.335 159.153 C 40.760 159.648,42.350 161.661,43.869 163.626 M357.700 162.425 C 355.967 165.930,353.888 168.292,351.431 169.546 C 349.021 170.775,348.923 170.611,350.857 168.584 C 351.807 167.588,353.507 165.527,354.635 164.004 C 358.974 158.148,360.100 157.567,357.700 162.425 M154.846 162.873 C 153.118 163.676,152.216 163.827,150.069 163.671 C 148.613 163.565,146.922 163.604,146.311 163.757 L 145.200 164.036 146.509 165.526 C 148.820 168.158,148.207 175.793,145.505 178.036 C 144.079 179.219,145.930 179.924,147.815 178.915 C 148.823 178.376,148.383 180.239,146.960 182.542 C 145.971 184.142,146.174 185.072,147.439 184.742 C 148.504 184.463,148.470 185.326,147.360 186.737 L 146.477 187.859 147.388 187.859 C 147.889 187.859,148.670 187.661,149.123 187.418 C 150.276 186.801,150.154 187.168,148.625 188.910 L 147.303 190.415 148.893 190.415 C 152.209 190.415,150.339 194.374,145.472 197.659 C 143.716 198.844,142.279 200.025,142.279 200.285 C 142.279 201.153,137.481 200.323,136.635 199.308 C 134.940 197.277,136.178 192.685,139.346 189.248 C 145.340 182.746,144.476 172.094,137.955 172.100 C 133.749 172.103,132.104 174.416,131.608 181.023 C 131.211 186.295,131.040 186.847,129.554 187.628 C 128.938 187.951,127.426 189.083,126.193 190.142 C 124.503 191.595,123.462 192.142,121.961 192.367 L 119.970 192.666 120.998 193.497 C 121.694 194.061,122.440 194.265,123.313 194.129 C 126.162 193.687,127.495 199.294,125.139 201.809 C 123.851 203.183,124.483 203.435,126.447 202.332 C 128.717 201.055,129.258 199.926,128.933 197.144 C 128.757 195.635,128.804 195.100,129.078 195.527 C 129.303 195.879,129.489 196.502,129.493 196.912 C 129.497 197.322,129.691 197.657,129.925 197.657 C 130.559 197.657,130.441 193.584,129.761 191.956 C 129.186 190.580,129.204 190.522,130.443 189.790 C 132.279 188.705,133.311 186.117,133.334 182.535 C 133.371 176.860,134.496 174.654,137.353 174.654 C 142.020 174.654,142.010 181.214,137.333 187.618 C 131.345 195.817,132.077 202.769,138.928 202.769 L 141.352 202.769 141.639 204.467 C 141.797 205.401,142.389 206.847,142.954 207.681 C 144.443 209.874,144.315 210.011,140.779 210.011 C 137.775 210.011,137.545 210.077,137.090 211.076 C 136.558 212.242,134.763 212.548,133.845 211.629 C 133.447 211.232,133.333 211.265,133.333 211.780 C 133.333 212.656,135.249 214.696,136.071 214.696 C 136.592 214.696,136.638 214.913,136.305 215.789 C 135.462 218.005,135.743 219.644,136.803 218.703 C 137.711 217.897,137.714 217.898,137.229 218.822 C 136.961 219.334,136.748 220.675,136.757 221.804 L 136.772 223.855 137.719 222.698 L 138.667 221.542 138.700 224.012 C 138.744 227.257,139.098 227.812,140.362 226.624 C 141.493 225.561,141.564 225.640,142.278 228.754 C 143.266 233.060,145.446 235.531,145.196 232.060 C 145.069 230.303,145.103 230.250,146.548 229.989 C 147.363 229.841,148.339 229.589,148.718 229.427 C 149.187 229.226,149.753 229.547,150.501 230.434 C 151.103 231.150,151.704 231.736,151.836 231.736 C 152.255 231.736,152.096 229.159,151.622 228.274 C 151.179 227.446,151.201 227.442,152.513 228.121 C 153.254 228.504,153.950 228.726,154.061 228.615 C 154.399 228.278,153.364 224.971,152.810 224.615 C 152.524 224.431,152.074 223.898,151.810 223.429 C 151.426 222.746,150.887 222.577,149.092 222.577 C 146.441 222.577,145.281 221.469,145.183 218.840 C 145.106 216.799,145.180 216.748,147.194 217.466 C 149.171 218.170,152.254 218.310,151.864 217.678 C 151.710 217.430,152.143 217.252,152.904 217.252 C 154.427 217.252,154.518 217.010,153.359 216.043 C 152.519 215.342,152.524 215.317,153.785 213.461 C 154.654 212.182,155.059 211.065,155.059 209.947 C 155.059 208.815,155.246 208.307,155.663 208.307 C 155.995 208.307,156.570 208.190,156.941 208.048 C 158.012 207.637,157.746 208.390,155.707 211.538 C 153.434 215.047,153.390 215.443,155.094 217.066 C 156.181 218.102,156.368 218.556,156.185 219.702 C 155.897 221.506,156.425 221.463,157.428 219.602 C 158.380 217.833,159.108 218.532,158.974 221.085 L 158.895 222.577 159.746 221.572 C 160.214 221.018,160.596 220.180,160.596 219.709 C 160.596 218.425,161.706 219.499,162.328 221.384 C 162.912 223.152,163.561 222.592,163.572 220.312 C 163.578 219.052,163.680 218.931,164.513 219.196 C 166.489 219.823,170.584 219.738,171.761 219.046 C 172.834 218.415,172.977 218.423,173.785 219.154 C 175.350 220.570,174.853 218.644,173.236 217.027 C 171.779 215.570,172.242 214.667,173.954 215.625 C 175.220 216.334,174.748 214.792,173.393 213.790 C 171.862 212.658,172.123 211.990,173.949 212.370 L 175.293 212.650 174.439 211.766 C 173.750 211.053,172.968 210.859,170.401 210.766 L 167.217 210.650 166.719 212.141 C 166.184 213.741,164.819 214.045,161.706 213.257 C 160.200 212.876,160.529 212.553,163.690 211.303 C 166.096 210.353,168.264 208.412,168.264 207.209 C 168.264 206.435,168.046 206.447,166.758 207.291 C 165.610 208.043,165.464 207.856,166.170 206.536 C 167.180 204.648,163.975 201.168,160.528 200.411 L 159.248 200.130 160.172 199.147 C 160.679 198.606,161.351 197.427,161.664 196.526 C 162.328 194.614,163.014 195.475,162.575 197.670 C 162.265 199.218,162.981 199.351,163.656 197.870 C 164.399 196.240,166.134 197.734,166.134 200.004 C 166.134 200.381,166.326 200.571,166.560 200.426 C 166.794 200.281,166.986 199.683,166.986 199.098 C 166.986 197.587,167.721 198.233,168.336 200.283 L 168.856 202.022 169.306 200.421 L 169.755 198.819 171.790 200.825 C 173.498 202.509,174.045 202.809,175.198 202.693 C 176.286 202.584,176.658 202.754,176.991 203.514 C 177.223 204.042,177.558 204.473,177.737 204.473 C 178.269 204.473,178.105 200.427,177.551 199.872 C 177.153 199.475,177.371 199.361,178.530 199.361 C 179.350 199.361,180.251 199.591,180.532 199.872 C 181.926 201.266,180.642 197.134,179.205 195.599 L 178.275 194.606 179.446 194.900 C 180.869 195.257,180.954 194.706,179.659 193.517 C 177.785 191.796,176.219 191.864,174.600 193.737 C 172.901 195.703,172.509 195.639,170.770 193.112 L 169.453 191.197 170.178 189.298 C 170.745 187.815,171.026 187.500,171.463 187.862 C 171.898 188.224,172.088 188.022,172.325 186.945 C 172.592 185.728,172.690 185.649,173.151 186.279 C 173.930 187.345,174.228 186.715,174.228 184.002 C 174.228 180.570,174.994 179.752,177.919 180.061 C 179.696 180.248,180.167 180.468,180.368 181.201 C 180.578 181.964,180.685 182.007,181.037 181.470 C 182.039 179.943,180.978 176.784,179.463 176.784 C 178.877 176.784,178.894 176.659,179.583 175.898 C 180.178 175.241,180.701 175.075,181.607 175.256 L 182.828 175.501 181.956 174.119 C 181.348 173.155,180.669 172.673,179.707 172.524 C 178.316 172.309,178.844 170.847,180.329 170.806 C 180.605 170.799,180.454 170.508,179.994 170.160 C 179.067 169.459,176.760 169.411,175.001 170.056 C 173.711 170.528,172.950 172.229,172.950 174.638 C 172.950 176.269,172.119 177.315,169.283 179.257 L 167.960 180.163 166.940 179.056 C 166.380 178.447,165.154 177.595,164.217 177.163 L 162.513 176.377 164.194 176.367 L 165.875 176.358 164.465 174.903 C 163.066 173.459,163.063 173.447,164.062 173.305 C 164.616 173.227,165.258 172.732,165.490 172.204 C 165.764 171.580,166.283 171.244,166.981 171.239 C 168.442 171.231,168.997 170.805,169.342 169.428 C 169.792 167.636,168.578 166.048,166.886 166.216 C 165.181 166.385,164.849 167.307,166.428 167.488 C 167.375 167.596,167.653 167.870,167.760 168.797 C 167.916 170.152,166.870 170.401,165.470 169.343 C 165.015 168.999,164.212 168.711,163.685 168.704 C 162.621 168.689,162.394 168.057,163.323 167.700 C 165.659 166.804,164.251 162.726,161.605 162.726 C 160.844 162.726,160.102 162.535,159.957 162.300 C 159.505 161.568,157.065 161.841,154.846 162.873 M64.562 174.211 C 63.627 179.632,62.030 184.397,61.853 182.294 C 61.666 180.064,62.910 172.337,64.009 168.903 L 64.963 165.921 65.092 168.160 C 65.162 169.391,64.924 172.114,64.562 174.211 M246.824 167.191 C 258.232 169.224,264.543 179.215,260.335 188.580 C 259.378 190.711,254.930 195.527,253.919 195.527 C 252.799 195.527,253.634 196.329,255.485 197.030 C 272.500 203.475,270.535 226.909,252.661 230.697 C 247.621 231.765,222.364 231.566,222.364 230.458 C 222.364 229.793,222.648 229.606,223.656 229.606 C 225.685 229.606,227.805 228.507,228.743 226.969 C 229.909 225.057,230.110 173.456,228.960 171.232 C 228.168 169.701,226.316 168.690,224.302 168.690 C 222.973 168.690,222.790 168.561,222.790 167.625 L 222.790 166.560 233.120 166.575 C 240.074 166.585,244.553 166.786,246.824 167.191 M160.970 167.562 C 161.643 168.373,160.766 170.858,159.921 170.534 C 159.067 170.206,158.692 168.380,159.323 167.620 C 159.974 166.835,160.356 166.822,160.970 167.562 M335.880 172.752 C 336.266 174.618,336.672 177.774,336.783 179.766 L 336.983 183.387 336.145 181.417 C 334.913 178.522,333.967 173.420,334.007 169.880 C 334.050 166.075,334.707 167.083,335.880 172.752 M163.792 169.814 C 164.655 170.146,163.850 170.803,162.568 170.813 C 161.907 170.819,161.861 170.710,162.300 170.181 C 162.911 169.445,162.861 169.457,163.792 169.814 M236.422 183.450 L 236.422 196.079 240.149 195.826 C 249.574 195.187,253.751 190.930,253.376 182.348 C 253.016 174.129,249.228 170.820,240.178 170.820 L 236.422 170.820 236.422 183.450 M160.700 180.475 C 160.406 180.593,160.262 180.848,160.381 181.040 C 160.500 181.233,160.176 181.280,159.661 181.145 C 158.707 180.896,159.548 180.244,160.809 180.255 C 161.044 180.257,160.995 180.356,160.700 180.475 M72.599 196.622 C 72.967 196.990,73.378 197.804,73.511 198.432 C 73.937 200.433,74.511 201.491,75.169 201.491 C 75.924 201.491,76.111 202.259,76.465 206.816 C 76.611 208.690,77.104 212.410,77.560 215.083 C 78.016 217.755,78.320 220.012,78.234 220.098 C 78.015 220.316,71.991 208.999,71.991 208.371 C 71.991 208.088,71.381 206.664,70.635 205.206 C 68.043 200.143,69.547 193.570,72.599 196.622 M329.110 197.302 C 330.561 200.108,329.929 202.144,323.878 214.157 C 320.205 221.450,319.982 221.664,320.956 216.966 C 321.573 213.992,322.897 204.015,322.897 202.340 C 322.897 201.984,323.322 201.504,323.841 201.272 C 324.471 200.992,324.901 200.291,325.130 199.169 C 325.796 195.915,327.886 194.934,329.110 197.302 M60.596 201.704 C 61.421 202.773,60.693 202.221,58.644 200.224 C 56.848 198.472,55.378 196.851,55.378 196.621 C 55.378 196.076,58.906 199.512,60.596 201.704 M341.210 199.365 C 338.462 202.465,337.883 202.987,337.556 202.660 C 337.307 202.412,343.011 196.379,343.495 196.379 C 343.694 196.379,342.666 197.723,341.210 199.365 M236.422 212.508 L 236.422 227.050 242.308 227.050 C 253.155 227.050,257.749 224.057,259.035 216.153 C 260.825 205.154,254.589 198.795,241.427 198.194 L 236.422 197.966 236.422 212.508 M59.212 206.383 C 61.438 208.207,63.333 209.763,63.423 209.842 C 63.514 209.920,62.980 209.810,62.237 209.597 C 59.486 208.808,56.386 206.210,54.091 202.769 L 53.097 201.278 54.131 202.173 C 54.700 202.665,56.986 204.559,59.212 206.383 M344.997 202.438 C 343.512 205.213,337.797 209.936,336.462 209.492 C 336.142 209.385,344.719 201.727,345.382 201.528 C 345.449 201.507,345.276 201.917,344.997 202.438 M318.438 210.453 C 317.237 220.753,314.803 230.958,314.803 225.689 C 314.803 219.964,315.958 212.919,317.849 207.108 C 319.080 203.326,319.193 203.970,318.438 210.453 M83.275 216.644 C 83.629 219.030,83.898 222.683,83.872 224.762 L 83.825 228.541 83.030 225.346 C 81.824 220.496,80.529 212.431,80.302 208.342 L 80.098 204.686 81.364 208.495 C 82.061 210.591,82.920 214.257,83.275 216.644 M312.863 211.133 C 312.545 212.804,312.097 215.871,311.868 217.948 L 311.451 221.725 311.591 217.039 C 311.674 214.232,312.016 211.440,312.444 210.075 C 313.401 207.017,313.566 207.434,312.863 211.133 M87.234 214.907 C 87.402 216.548,87.427 218.946,87.290 220.234 C 87.041 222.566,87.039 222.562,86.956 219.382 C 86.909 217.625,86.594 214.654,86.256 212.780 C 85.496 208.574,85.506 208.036,86.306 210.221 C 86.648 211.157,87.066 213.265,87.234 214.907 M74.087 223.837 C 75.470 224.553,79.005 228.354,79.905 230.095 C 80.515 231.276,80.515 231.276,78.703 231.744 C 77.706 232.002,76.557 232.309,76.150 232.427 C 75.528 232.608,75.451 232.438,75.666 231.360 C 75.883 230.274,75.690 229.863,74.404 228.670 C 71.270 225.766,71.040 222.262,74.087 223.837 M326.936 223.629 C 327.403 224.386,325.375 228.379,324.320 228.780 C 323.535 229.078,323.323 229.478,323.323 230.660 C 323.323 231.486,323.179 232.154,323.003 232.144 C 322.827 232.134,321.663 231.887,320.415 231.596 L 318.146 231.066 320.089 228.426 C 322.806 224.736,326.165 222.382,326.936 223.629 M99.679 234.845 C 103.472 236.701,104.164 242.171,100.836 243.973 C 99.655 244.613,98.564 244.689,92.865 244.527 C 79.903 244.158,77.037 244.246,74.887 245.076 C 71.079 246.545,68.811 250.584,69.820 254.100 C 72.622 263.867,73.715 272.663,72.349 274.454 C 69.470 278.230,47.480 277.479,36.901 273.244 C 33.664 271.948,33.441 271.566,35.676 271.149 C 42.663 269.846,51.927 265.635,55.984 261.917 C 60.117 258.129,60.139 258.017,56.962 256.866 C 48.117 253.661,39.966 247.754,34.052 240.263 C 30.561 235.840,30.566 235.880,33.681 237.139 C 45.436 241.887,56.011 241.811,75.825 236.836 C 90.201 233.227,95.473 232.787,99.679 234.845 M309.943 233.892 C 312.172 234.140,318.612 235.479,324.254 236.867 C 344.466 241.840,354.515 241.907,366.297 237.148 C 369.590 235.817,369.595 235.800,365.341 240.895 C 359.380 248.033,352.571 253.032,344.413 256.262 C 339.620 258.158,339.733 257.807,342.900 260.974 C 347.034 265.108,355.358 269.142,363.472 270.944 C 366.598 271.638,366.550 271.894,363.046 273.208 C 351.941 277.374,337.685 278.169,328.495 275.136 L 327.032 274.653 327.279 269.488 C 327.570 263.391,328.508 258.444,330.013 255.065 C 331.922 250.780,330.640 247.419,326.343 245.438 C 323.705 244.222,321.031 244.095,307.135 244.524 C 298.359 244.796,296.459 243.808,297.050 239.281 C 297.443 236.270,299.260 234.627,303.014 233.885 C 305.513 233.391,305.450 233.391,309.943 233.892 M290.611 247.619 C 289.316 250.955,286.312 256.635,286.006 256.329 C 285.697 256.020,287.045 252.569,289.358 247.752 C 291.802 242.658,292.569 242.577,290.611 247.619 M112.240 254.100 C 113.603 257.849,112.692 256.818,110.082 251.659 C 108.927 249.376,108.213 247.403,108.234 246.547 C 108.274 244.908,110.256 248.644,112.240 254.100 M88.024 249.054 C 92.336 249.629,94.153 249.678,97.880 249.318 C 103.322 248.793,102.497 247.777,102.850 255.439 L 103.147 261.890 99.816 261.261 C 85.625 258.582,74.973 254.714,74.973 252.241 C 74.973 248.763,78.813 247.826,88.024 249.054 M322.557 249.207 C 323.806 249.791,325.169 252.169,324.802 253.125 C 324.074 255.022,311.568 259.163,300.213 261.267 L 296.912 261.878 296.912 255.277 L 296.912 248.676 297.870 248.935 C 300.255 249.579,308.341 249.635,312.034 249.033 C 316.350 248.329,320.837 248.403,322.557 249.207 M291.567 255.731 C 291.416 256.332,290.835 257.124,290.276 257.490 L 289.259 258.157 290.408 256.255 C 291.658 254.186,291.993 254.034,291.567 255.731 M109.282 257.614 L 110.036 258.786 109.118 257.974 C 108.613 257.528,108.200 257.001,108.200 256.803 C 108.200 256.178,108.505 256.407,109.282 257.614 M257.702 261.235 C 256.699 262.231,255.047 264.169,254.031 265.542 C 251.950 268.353,251.557 268.246,253.385 265.366 C 254.435 263.711,258.709 259.425,259.308 259.425 C 259.427 259.425,258.705 260.240,257.702 261.235 M144.245 263.554 C 145.062 264.660,146.910 268.000,146.438 267.519 C 144.496 265.538,140.801 260.406,141.945 261.279 C 142.724 261.873,143.759 262.896,144.245 263.554 M262.963 262.445 C 261.191 265.475,256.443 269.828,256.443 268.422 C 256.443 268.053,263.188 261.129,263.547 261.129 C 263.649 261.129,263.387 261.721,262.963 262.445 M140.401 265.996 C 141.439 267.183,142.076 268.225,141.815 268.312 C 141.226 268.509,137.202 264.579,136.125 262.757 L 135.329 261.409 136.921 262.623 C 137.796 263.291,139.362 264.809,140.401 265.996 M322.697 281.706 C 323.061 284.237,323.827 288.110,324.399 290.313 C 325.579 294.852,325.551 295.053,323.575 296.403 C 310.904 305.053,230.300 313.929,183.174 311.865 C 133.962 309.709,87.864 303.152,76.952 296.757 C 74.296 295.201,74.275 295.099,75.552 289.993 C 77.385 282.661,78.356 274.088,78.375 265.069 C 78.378 263.371,78.486 261.981,78.614 261.981 C 78.741 261.981,81.186 262.648,84.045 263.463 C 100.686 268.207,131.020 272.194,170.181 274.784 C 215.624 277.790,291.121 271.574,319.063 262.526 L 321.406 261.767 321.721 269.435 C 321.894 273.653,322.333 279.174,322.697 281.706 M128.338 263.685 C 129.543 264.633,130.789 264.781,131.508 264.062 C 131.857 263.713,132.154 263.918,132.630 264.838 C 132.986 265.527,133.577 266.339,133.944 266.643 C 135.203 267.688,134.603 267.780,130.032 267.244 C 127.513 266.949,125.309 266.698,125.133 266.687 C 124.663 266.657,124.745 264.610,125.255 263.657 C 125.821 262.598,126.970 262.609,128.338 263.685 M273.746 263.915 C 275.103 265.987,274.119 266.920,270.218 267.258 C 268.382 267.417,266.239 267.661,265.456 267.801 L 264.032 268.054 265.456 265.877 C 266.819 263.793,267.519 263.194,267.519 264.111 C 267.519 264.837,269.246 264.580,270.384 263.685 C 271.840 262.540,272.892 262.612,273.746 263.915 M90.522 278.234 C 87.754 279.748,87.894 281.967,90.987 285.614 C 92.945 287.922,93.278 288.534,92.852 289.046 C 91.703 290.431,89.457 289.510,89.457 287.654 C 89.457 286.562,88.370 285.900,87.691 286.580 C 84.888 289.382,89.396 293.331,93.460 291.633 C 94.894 291.033,94.995 291.042,94.995 291.764 C 94.995 292.503,97.072 293.078,99.740 293.078 C 100.600 293.078,100.879 291.560,100.069 291.290 C 98.625 290.809,101.266 289.149,103.007 289.443 C 104.812 289.748,106.157 291.700,104.860 292.132 C 104.270 292.329,104.191 293.930,104.771 293.930 C 104.993 293.930,107.400 294.221,110.121 294.578 C 112.841 294.935,115.247 295.115,115.467 294.979 C 116.094 294.592,115.937 293.622,115.203 293.340 C 114.729 293.158,114.576 292.632,114.671 291.505 L 114.803 289.926 117.241 290.041 C 123.575 290.341,123.741 282.826,117.427 281.630 C 111.783 280.562,109.513 281.006,111.857 282.720 C 112.517 283.202,112.532 283.645,112.036 287.949 L 111.494 292.652 110.288 292.652 C 108.778 292.652,108.703 292.499,106.697 285.304 C 104.822 278.581,104.387 278.202,102.544 281.684 C 100.946 284.704,96.533 290.763,96.035 290.620 C 95.814 290.556,95.699 289.557,95.778 288.398 C 95.917 286.374,95.838 286.202,93.755 283.999 C 91.512 281.628,91.104 280.575,92.257 280.132 C 93.103 279.808,94.569 280.569,94.569 281.333 C 94.569 281.857,95.782 282.635,96.101 282.316 C 98.648 279.769,93.971 276.348,90.522 278.234 M304.011 279.629 C 303.868 280.667,303.062 283.649,302.219 286.257 L 300.687 290.997 299.332 290.866 L 297.977 290.735 297.284 286.049 C 296.596 281.396,296.637 281.059,297.947 280.599 C 299.229 280.149,297.662 278.962,296.128 279.222 C 295.229 279.374,293.648 279.568,292.614 279.654 C 291.581 279.740,289.232 280.111,287.396 280.480 C 285.560 280.849,283.355 281.149,282.497 281.147 C 277.119 281.138,271.992 282.994,275.131 283.815 C 275.851 284.003,276.952 289.324,276.388 289.888 C 276.305 289.971,274.089 288.423,271.464 286.447 C 267.560 283.508,264.963 282.130,264.963 282.998 C 264.963 283.077,265.249 285.042,265.599 287.364 C 266.437 292.925,266.438 295.208,265.602 295.208 C 264.881 295.208,264.732 296.293,265.396 296.703 C 266.348 297.292,270.501 296.422,270.501 295.634 C 270.501 295.220,270.146 294.788,269.713 294.675 C 268.996 294.488,267.927 289.119,268.494 288.552 C 268.581 288.465,270.827 290.023,273.484 292.014 C 278.835 296.024,280.127 296.488,279.708 294.249 C 278.397 287.246,278.362 280.045,279.659 284.132 C 279.964 285.091,281.576 285.309,281.576 284.391 C 281.576 283.497,284.543 282.712,284.566 283.600 C 284.571 283.775,284.850 285.836,285.187 288.179 C 285.723 291.904,285.722 292.498,285.179 292.912 C 284.837 293.172,284.558 293.718,284.558 294.125 C 284.558 294.889,289.372 294.747,290.216 293.958 C 290.698 293.507,290.109 292.226,289.419 292.226 C 288.759 292.226,288.633 291.751,287.960 286.753 C 287.419 282.735,287.355 282.955,289.168 282.592 C 290.245 282.377,290.522 282.463,290.522 283.014 C 290.522 283.470,290.888 283.706,291.595 283.706 C 292.527 283.706,292.633 283.566,292.401 282.641 C 292.199 281.836,292.300 281.576,292.819 281.576 C 293.195 281.576,293.515 281.624,293.529 281.683 C 294.599 286.236,294.992 291.385,294.288 291.608 C 293.464 291.870,293.177 293.504,293.955 293.504 C 294.203 293.504,295.688 293.322,297.256 293.101 C 298.824 292.879,301.209 292.578,302.556 292.431 C 304.823 292.184,305.005 292.084,305.005 291.085 C 305.005 290.336,304.823 290.075,304.411 290.233 C 303.953 290.409,303.887 290.200,304.122 289.320 C 304.590 287.561,307.767 286.963,308.941 288.412 C 309.442 289.031,309.584 289.492,309.303 289.586 C 307.639 290.141,308.929 291.458,310.863 291.179 C 314.999 290.582,316.088 289.711,313.789 288.837 C 313.162 288.599,311.437 286.409,309.268 283.097 C 305.339 277.099,304.439 276.505,304.011 279.629 M122.684 283.221 C 122.684 283.781,122.953 284.132,123.381 284.132 C 123.993 284.132,124.043 284.541,123.788 287.433 C 123.297 292.989,123.055 294.024,122.194 294.249 C 120.545 294.680,121.299 295.929,123.382 296.215 C 126.722 296.673,127.370 296.578,127.370 295.634 C 127.370 295.160,127.086 294.782,126.731 294.782 C 126.379 294.782,126.092 294.501,126.092 294.158 C 126.092 288.562,128.056 282.117,129.002 284.610 C 129.081 284.816,129.439 284.984,129.799 284.984 C 130.362 284.984,130.412 285.558,130.156 289.137 C 129.791 294.226,129.575 295.208,128.814 295.208 C 126.631 295.208,128.428 296.849,130.884 297.097 C 132.348 297.245,134.445 297.472,135.544 297.602 L 137.542 297.836 138.633 295.684 C 140.142 292.706,139.260 291.876,136.993 294.143 C 134.982 296.153,132.505 295.460,132.807 292.971 C 133.032 291.118,133.904 290.873,135.463 292.226 C 137.082 293.630,137.593 293.110,137.593 290.061 C 137.593 288.676,137.448 288.392,136.741 288.392 C 136.273 288.392,135.889 288.584,135.889 288.818 C 135.889 289.052,135.261 289.244,134.494 289.244 C 133.122 289.244,133.101 289.214,133.260 287.540 C 133.450 285.551,136.741 284.746,136.741 286.688 C 136.741 287.313,137.025 287.540,137.806 287.540 C 138.797 287.540,138.871 287.395,138.871 285.451 L 138.871 283.361 137.274 283.572 C 136.395 283.688,133.855 283.565,131.629 283.298 C 122.514 282.206,122.684 282.208,122.684 283.221 M260.703 283.334 C 260.117 283.568,258.056 283.872,256.124 284.009 C 252.585 284.260,251.010 285.497,253.424 286.129 C 254.074 286.299,254.293 286.871,254.507 288.964 C 254.655 290.407,254.886 292.593,255.020 293.823 C 255.224 295.699,255.152 296.060,254.575 296.060 C 254.119 296.060,253.887 296.431,253.887 297.162 C 253.887 298.194,253.989 298.249,255.485 298.028 C 256.363 297.898,258.550 297.668,260.345 297.518 L 263.607 297.245 264.072 295.399 C 264.703 292.894,264.669 292.652,263.685 292.652 C 263.216 292.652,262.833 292.843,262.833 293.078 C 262.833 294.021,261.082 295.208,259.691 295.208 C 258.294 295.208,257.721 294.324,257.721 292.173 C 257.721 291.655,260.166 291.702,260.490 292.226 C 261.266 293.481,262.518 292.649,262.254 291.054 C 262.109 290.176,261.988 289.127,261.986 288.725 C 261.980 287.891,260.725 288.151,260.149 289.105 C 259.201 290.677,257.295 289.479,257.295 287.311 C 257.295 285.992,260.135 285.263,260.781 286.417 C 261.617 287.911,262.970 287.270,262.680 285.517 C 262.535 284.638,262.414 283.679,262.412 283.387 C 262.406 282.765,262.147 282.757,260.703 283.334 M306.722 284.582 C 307.104 285.295,307.023 285.410,306.144 285.410 C 305.286 285.410,305.156 285.241,305.326 284.350 C 305.546 283.200,306.025 283.279,306.722 284.582 M118.180 284.375 C 119.081 285.276,119.024 286.398,118.033 287.295 C 117.131 288.112,115.204 288.060,115.272 287.220 C 115.295 286.928,115.343 286.017,115.378 285.197 C 115.450 283.512,116.894 283.089,118.180 284.375 M141.594 286.155 C 141.494 292.516,140.964 296.060,140.111 296.060 C 138.492 296.060,139.154 297.629,140.895 297.916 C 143.877 298.409,144.835 298.269,144.835 297.338 C 144.835 296.864,144.551 296.486,144.196 296.486 C 143.503 296.486,143.340 294.234,143.822 291.322 L 144.077 289.779 146.444 292.387 C 154.110 300.830,154.207 300.882,154.207 296.579 C 154.207 291.275,154.702 287.114,155.334 287.114 C 155.651 287.114,155.911 287.497,155.911 287.966 C 155.911 288.982,157.395 289.152,157.769 288.179 C 157.917 287.791,158.562 287.540,159.412 287.539 L 160.809 287.539 160.539 292.332 C 160.226 297.897,160.342 297.338,159.502 297.338 C 159.052 297.338,158.878 297.651,158.969 298.296 C 159.165 299.672,164.189 300.011,164.539 298.671 C 164.693 298.084,164.502 297.770,163.895 297.612 C 163.155 297.418,163.071 297.156,163.301 295.764 C 163.448 294.872,163.571 292.741,163.574 291.029 L 163.578 287.914 165.078 288.047 C 165.903 288.119,166.558 288.349,166.533 288.557 C 166.478 289.013,167.420 289.654,168.158 289.663 C 168.450 289.667,168.690 289.197,168.690 288.618 C 168.690 287.859,168.867 287.635,169.329 287.812 C 170.434 288.236,170.250 297.344,169.130 297.636 C 168.401 297.827,167.499 299.313,167.906 299.653 C 167.986 299.720,170.591 299.898,173.695 300.049 L 179.340 300.323 179.340 299.292 C 179.340 298.725,179.121 298.188,178.853 298.098 C 177.485 297.642,179.370 296.060,181.281 296.060 C 183.250 296.060,185.182 298.017,183.701 298.511 C 181.727 299.169,183.289 300.319,186.155 300.319 C 189.147 300.319,190.626 299.104,188.358 298.511 C 187.640 298.323,186.701 296.456,183.215 288.285 C 182.118 285.714,180.977 285.550,180.250 287.859 C 178.866 292.260,175.343 297.977,174.015 297.977 C 173.254 297.977,172.754 297.761,172.780 297.444 C 172.803 297.151,172.851 294.977,172.886 292.612 C 172.944 288.699,173.027 288.292,173.802 288.089 C 174.271 287.967,174.654 287.524,174.654 287.104 C 174.654 286.140,172.710 285.848,164.856 285.630 C 161.693 285.543,158.435 285.265,157.615 285.014 C 156.795 284.762,156.072 284.713,156.008 284.903 C 155.945 285.094,154.747 285.167,153.346 285.066 C 150.977 284.894,150.799 284.945,150.799 285.785 C 150.799 286.304,151.071 286.688,151.438 286.688 C 151.935 286.688,152.070 287.231,152.047 289.137 C 151.992 293.625,151.865 293.606,147.210 288.406 C 142.286 282.906,141.648 282.650,141.594 286.155 M246.503 284.842 C 245.897 285.449,246.236 286.688,247.009 286.688 C 248.276 286.688,248.944 296.284,247.710 296.758 C 247.359 296.892,247.071 297.385,247.071 297.852 C 247.071 298.596,252.553 298.716,253.365 297.990 C 253.708 297.682,252.862 296.540,252.154 296.354 C 251.549 296.196,251.331 295.763,251.329 294.715 C 251.327 293.932,251.203 291.709,251.053 289.776 C 250.812 286.685,250.864 286.262,251.481 286.262 C 251.899 286.262,252.183 285.917,252.183 285.410 C 252.183 284.550,247.285 284.060,246.503 284.842 M104.029 286.396 C 104.191 287.241,104.073 287.366,103.258 287.210 C 102.413 287.048,102.351 286.902,102.754 286.018 C 103.288 284.845,103.760 284.985,104.029 286.396 M235.563 285.773 C 232.174 287.574,230.930 292.827,233.122 296.080 C 236.672 301.348,246.219 299.722,246.219 293.849 C 246.219 291.238,244.798 290.797,244.335 293.265 C 243.382 298.347,235.969 297.938,235.275 292.766 C 234.592 287.669,240.940 284.738,243.263 289.078 C 243.846 290.169,245.367 290.481,245.367 289.510 C 245.367 285.389,240.079 283.373,235.563 285.773 M225.060 286.011 C 223.547 286.692,222.790 287.819,222.790 289.394 C 222.790 291.180,223.221 291.760,226.036 293.769 C 228.788 295.733,229.166 296.329,228.243 297.252 C 226.999 298.497,224.920 297.536,224.920 295.716 C 224.920 294.956,224.746 294.757,224.246 294.949 C 223.876 295.091,223.396 295.208,223.181 295.208 C 222.147 295.208,222.779 299.058,223.883 299.478 C 230.565 302.019,234.024 295.921,228.328 291.643 C 225.301 289.369,224.949 288.905,225.827 288.349 C 226.874 287.686,228.257 287.925,228.541 288.818 C 229.064 290.466,230.458 289.865,230.458 287.991 C 230.458 287.068,230.296 286.212,230.098 286.090 C 229.140 285.497,226.301 285.453,225.060 286.011 M201.704 286.262 C 201.001 286.441,198.940 286.610,197.125 286.638 C 194.124 286.683,193.823 286.766,193.823 287.540 C 193.823 288.013,194.107 288.392,194.462 288.392 C 194.995 288.392,195.101 289.244,195.101 293.504 C 195.101 297.764,194.995 298.616,194.462 298.616 C 194.107 298.616,193.823 298.994,193.823 299.468 C 193.823 300.269,194.107 300.319,198.638 300.319 L 203.453 300.319 204.178 298.296 C 205.256 295.288,204.390 294.442,202.570 296.725 C 201.972 297.475,201.133 297.893,199.891 298.059 L 198.083 298.302 198.083 296.329 C 198.083 294.420,198.125 294.356,199.361 294.356 C 200.213 294.356,200.639 294.569,200.639 294.995 C 200.639 295.392,201.041 295.634,201.704 295.634 C 202.711 295.634,202.769 295.506,202.769 293.291 C 202.769 291.076,202.711 290.948,201.704 290.948 C 201.041 290.948,200.639 291.189,200.639 291.587 C 200.639 292.013,200.213 292.226,199.361 292.226 C 198.154 292.226,198.083 292.131,198.083 290.522 L 198.083 288.818 199.787 288.818 C 201.018 288.818,201.491 288.995,201.491 289.457 C 201.491 289.854,201.893 290.096,202.556 290.096 C 203.550 290.096,203.621 289.954,203.621 287.966 C 203.621 286.794,203.477 285.859,203.301 285.886 C 203.126 285.914,202.407 286.083,201.704 286.262 M204.473 287.937 C 204.473 289.812,204.585 290.096,205.325 290.096 C 205.798 290.096,206.177 289.812,206.177 289.457 C 206.177 288.995,206.650 288.818,207.881 288.818 L 209.585 288.818 209.585 293.517 C 209.585 297.301,209.460 298.264,208.946 298.462 C 207.024 299.199,208.308 300.319,211.076 300.319 C 213.745 300.319,213.845 300.281,213.845 299.255 C 213.845 298.592,213.603 298.190,213.206 298.190 C 212.675 298.190,212.567 297.361,212.567 293.291 L 212.567 288.392 213.858 288.392 C 214.613 288.392,215.251 288.657,215.394 289.031 C 216.001 290.611,217.252 289.725,217.252 287.715 L 217.252 285.761 215.655 286.031 C 213.356 286.418,206.559 286.459,205.431 286.091 C 204.522 285.795,204.473 285.890,204.473 287.937 M182.322 293.585 C 182.322 293.775,181.846 293.930,181.266 293.930 C 180.285 293.930,180.246 293.852,180.712 292.828 C 181.198 291.762,182.322 292.290,182.322 293.585 " stroke="none" fill="#dddddd" fill-rule="evenodd"></path>
</g>
</svg>
